HIERARCHY
ROOT Hips
{
  OFFSET -32.5998 29.0326 120.673
  CHANNELS 6 Xposition Yposition Zposition Zrotation Xrotation Yrotation
  JOINT LeftUpLeg
  {
    OFFSET 8.64259 1.95398 -2.38835
    CHANNELS 3 Zrotation Xrotation Yrotation
    JOINT LeftLeg
    {
      OFFSET 43.7702 0 0
      CHANNELS 3 Zrotation Xrotation Yrotation
      JOINT LeftFoot
      {
        OFFSET 40.6238 0 0
        CHANNELS 3 Zrotation Xrotation Yrotation
        JOINT LeftToeBase
        {
          OFFSET 12.7242 0 0
          CHANNELS 3 Zrotation Xrotation Yrotation
          End Site
          {
            OFFSET 0 0 0
          }
        }
      }
    }
  }
  JOINT RightUpLeg
  {
    OFFSET -8.2249 1.95398 -2.59336
    CHANNELS 3 Zrotation Xrotation Yrotation
    JOINT RightLeg
    {
      OFFSET 43.5653 0 0
      CHANNELS 3 Zrotation Xrotation Yrotation
      JOINT RightFoot
      {
        OFFSET 40.6238 0 0
        CHANNELS 3 Zrotation Xrotation Yrotation
        JOINT RightToeBase
        {
          OFFSET 12.7242 0 0
          CHANNELS 3 Zrotation Xrotation Yrotation
          End Site
          {
            OFFSET 0 0 0
          }
        }
      }
    }
  }
  JOINT Spine
  {
    OFFSET 0.165834 0.87714 6.61349
    CHANNELS 3 Zrotation Xrotation Yrotation
    JOINT Spine1
    {
      OFFSET 7.38963 1.71661e-005 0
      CHANNELS 3 Zrotation Xrotation Yrotation
      JOINT Spine2
      {
        OFFSET 11.9445 1.14441e-005 0
        CHANNELS 3 Zrotation Xrotation Yrotation
        JOINT Spine3
        {
          OFFSET 14.7254 4.19617e-005 0
          CHANNELS 3 Zrotation Xrotation Yrotation
          JOINT Spine4
          {
            OFFSET 10.9679 0 0
            CHANNELS 3 Zrotation Xrotation Yrotation
            JOINT RightShoulder
            {
              OFFSET 2.46616 -1.6653 3.69651
              CHANNELS 3 Zrotation Xrotation Yrotation
              JOINT RightArm
              {
                OFFSET 13.0012 0 0
                CHANNELS 3 Zrotation Xrotation Yrotation
                JOINT RightForeArm
                {
                  OFFSET 28.7848 1.62311e-005 0
                  CHANNELS 3 Zrotation Xrotation Yrotation
                  JOINT RightHand
                  {
                    OFFSET 26.5688 1.62095e-005 0
                    CHANNELS 3 Zrotation Xrotation Yrotation
                    End Site
                    {
                      OFFSET 0 0 0
                    }
                  }
                }
              }
            }
            JOINT LeftShoulder
            {
              OFFSET 2.38034 -1.29275 -3.7523
              CHANNELS 3 Zrotation Xrotation Yrotation
              JOINT LeftArm
              {
                OFFSET 16.3182 6.07031e-005 0
                CHANNELS 3 Zrotation Xrotation Yrotation
                JOINT LeftForeArm
                {
                  OFFSET 27.0901 0 0
                  CHANNELS 3 Zrotation Xrotation Yrotation
                  JOINT LeftHand
                  {
                    OFFSET 24.5451 1.51738e-005 0
                    CHANNELS 3 Zrotation Xrotation Yrotation
                    End Site
                    {
                      OFFSET 0 0 0
                    }
                  }
                }
              }
            }
            JOINT Neck
            {
              OFFSET 5.0226 -0.0266342 0
              CHANNELS 3 Zrotation Xrotation Yrotation
              JOINT Head
              {
                OFFSET 6.69364 2.86102e-005 0
                CHANNELS 3 Zrotation Xrotation Yrotation
                End Site
                {
                  OFFSET 0 0 0
                }
              }
            }
          }
        }
      }
    }
  }
}
MOTION
Frames:	18
Frame Time:	0.0416667
-82.3054 96.9114 -83.2963 101.033 -69.2649 98.8982 -172.318 11.1757 91.2662 -37.3678 30.9803 -1.85893 78.512 12.8735 2.30378 21.4438 -1.14764 -3.95269 163.631 -0.22662 82.2459 -40.8109 7.89947 3.17341 79.8445 -11.5939 -0.586767 31.614 -1.9493 3.17632 1.13536 8.10137 -90.2661 10.6787 2.13853 -0.724464 -0.9907 2.10459 -0.817921 -23.54 2.25735 -0.0479406 -3.5273 2.25736 -0.0479436 89.932 -26.3775 -108.369 34.7309 -18.5557 4.01698 -35.0372 7.10552 -81.7433 -7.86068 -0.00873954 -5.35605 -87.8902 -48.8608 81.6825 -6.75524 15.4249 -19.9677 -148.044 -1.76873 -77.5213 -9.18278 0.840641 -19.8964 20.7418 31.5008 5.24825 -7.66124 28.8283 3.89235 
-82.4746 97.9573 -82.3612 98.6507 -65.3314 97.0407 -172.991 9.78034 92.0806 -33.8112 34.9417 -1.08001 76.2933 11.5393 2.61034 22.2762 -1.16529 -3.24037 163.063 0.0172644 82.4507 -39.3564 7.75782 4.29011 78.7832 -11.0735 -0.910968 31.4472 -2.0815 4.13014 0.958399 8.02277 -90.4049 10.8364 1.72141 -0.965499 -0.833871 1.67725 -1.04034 -23.3774 1.93198 -0.403362 -3.36477 1.93197 -0.403365 89.9841 -26.7915 -108.081 36.817 -23.1353 4.48661 -33.506 -1.23842 -67.7881 -7.09303 0.0630857 -6.69391 -87.8792 -47.6349 81.4703 -6.68773 10.7 -27.3355 -147.826 -2.76851 -77.0515 -10.7489 1.08933 -20.3205 19.0174 33.2639 5.99102 -6.7625 30.5023 4.29594 
-83.0283 98.9313 -81.4441 96.8026 -62.5402 95.5535 -173.427 8.28263 92.7548 -29.5606 38.3556 -0.418742 74.0865 10.3936 3.79371 21.7389 -0.636998 -4.79037 163.164 -0.193517 82.6448 -35.8814 10.8429 4.9906 78.1924 -10.1778 0.760982 30.7019 -1.77143 4.08513 0.883255 7.9073 -90.439 11.0663 1.55473 -1.02354 -0.604211 1.50818 -1.09098 -23.1458 1.79042 -0.508867 -3.13313 1.79045 -0.50886 90.0404 -27.5197 -107.662 39.4689 -22.849 5.91249 -30.1827 -10.5201 -54.5077 -7.29221 0.15035 -8.14028 -87.467 -46.0654 81.8182 -7.64039 7.40697 -33.0541 -148.343 -3.87127 -76.9002 -11.5785 1.2036 -20.34 19.7684 34.5117 5.50854 -7.73514 31.7743 4.44093 
-83.7106 99.5399 -80.3481 96.0058 -60.5086 94.8773 -173.433 6.92714 93.5905 -26.5553 40.6074 0.00294596 72.3813 9.11792 3.39386 23.5591 -0.452616 -3.71908 163.236 -0.888359 82.6716 -31.4814 9.82115 5.22536 76.1703 -9.8492 -1.7282 31.9064 -1.828 2.02654 0.901259 7.84926 -90.4951 11.1831 1.56366 -1.13909 -0.487458 1.51204 -1.20681 -23.0287 1.8337 -0.616388 -3.01603 1.83371 -0.616381 90.5975 -26.9029 -106.761 42.2909 -22.2524 7.9116 -20.6542 -12.8297 -40.3286 -8.25859 0.308753 -10.1439 -87.3118 -44.817 81.8303 -10.4695 4.19189 -38.1143 -146.434 -4.56945 -76.8558 -12.0983 1.32173 -20.8537 20.0359 35.4231 6.1618 -8.1631 32.4701 4.22968 
-84.6967 99.6469 -79.3418 94.9912 -58.8607 93.5323 -173.334 6.64832 94.1964 -25.1098 41.5464 0.149802 71.914 8.50804 1.92009 24.4893 -0.427771 -2.97657 163.365 -0.902427 82.3323 -28.6411 10.4559 4.7953 75.7117 -9.82932 -0.981616 32.3918 -2.23384 3.00103 0.867298 7.79547 -90.4447 11.2899 1.51889 -1.03657 -0.380653 1.47179 -1.10242 -22.9218 1.76018 -0.532076 -2.90915 1.76017 -0.53208 91.0981 -26.3342 -105.932 45.1181 -21.4593 10.3761 -14.9485 -13.054 -31.1277 -8.69272 0.352446 -10.4538 -87.161 -44.6982 82.0494 -12.5498 1.94533 -42.0219 -144.346 -5.69467 -78.0845 -12.0627 1.37537 -21.5354 19.863 35.8902 6.31999 -8.4275 32.8893 4.44074 
-86.1669 99.5085 -78.1328 94.5032 -57.6371 92.5272 -173.192 6.34259 94.7659 -23.9138 44.5591 0.298916 71.1054 8.69232 4.50841 26.9979 0.687353 -3.38076 163.635 -1.08586 82.4099 -26.7739 9.68972 4.24915 74.2883 -9.35379 -1.10314 32.8907 -2.43381 2.97464 0.845315 7.82315 -90.4019 11.2337 1.49539 -0.947614 -0.436795 1.45225 -1.01252 -22.978 1.71103 -0.454283 -2.96533 1.71105 -0.454291 91.7184 -25.4034 -104.984 47.4744 -20.1993 12.1013 -11.7682 -12.7781 -25.5458 -9.88026 0.358093 -9.86943 -87.776 -45.5676 81.2361 -13.348 0.77641 -45.4769 -142.421 -8.03143 -82.1302 -11.5857 1.32181 -21.7673 19.4827 34.1367 6.51268 -7.73798 31.1928 3.32709 
-88.0436 99.1817 -76.6167 94.2444 -57.0599 90.979 -173.214 5.17056 95.0039 -21.8623 44.0008 0.640681 71.5318 8.53136 2.53156 28.3935 0.37195 -1.29979 163.461 -1.14366 82.0667 -25.7876 10.4187 4.16764 73.384 -8.47481 0.801851 32.8548 -2.29702 2.35807 0.6815 7.81119 -90.1424 11.2544 1.29011 -0.41118 -0.416032 1.27071 -0.467562 -22.9563 1.35401 -0.00437094 -2.94368 1.354 -0.00437448 91.7655 -25.4469 -104.866 49.6964 -19.3011 13.4538 -10.2008 -11.9538 -22.538 -8.89489 0.355025 -10.3742 -87.9058 -46.4056 81.1947 -12.0919 0.717938 -47.055 -142.347 -12.2361 -89.0714 -10.4894 1.13747 -21.5474 18.4408 27.483 4.0257 -7.6585 25.4691 1.67814 
-90.5061 98.7673 -74.7662 93.4485 -58.1327 89.5156 -173.132 4.35107 95.8642 -20.3146 42.4378 1.29182 72.0201 8.49897 1.16393 30.6464 0.496425 0.664957 163.676 -1.15705 82.9278 -24.7827 11.03 4.55532 73.018 -8.38641 0.839858 32.6446 -2.1381 1.99383 0.590047 7.78165 -89.9275 11.311 1.20798 0.0244374 -0.359394 1.20791 -0.0287672 -22.8987 1.1448 0.38641 -2.88606 1.14479 0.386401 91.7982 -25.7664 -104.675 51.1621 -19.259 14.0753 -10.5028 -13.2738 -22.2666 -8.32534 0.341897 -10.5617 -87.8627 -47.0702 81.3899 -10.6202 1.25062 -47.2258 -147.457 -17.7891 -100.615 -10.4907 1.15925 -21.8439 16.0415 17.0193 1.43091 -7.05885 16.1893 -1.62898 
-93.5601 98.1783 -72.4113 93.8615 -61.4051 90.0172 -171.894 2.17973 98.1865 -17.8011 40.105 1.59926 73.1402 8.95408 0.431186 31.9609 0.159683 3.01315 164.788 -2.06365 85.1394 -25.3358 10.066 4.67229 76.6331 -10.8485 0.223499 33.1651 -2.3059 1.72239 0.540244 7.84427 -89.8446 11.1847 1.14748 0.196675 -0.485725 1.15504 0.145967 -23.0242 1.03533 0.532487 -3.01158 1.03532 0.532479 91.6265 -26.0317 -104.94 51.506 -19.1548 13.958 -10.3366 -12.4894 -22.4848 -8.78268 0.336686 -10.2234 -87.7651 -47.4298 81.6098 -8.89662 1.66635 -43.2329 -149.341 -23.5079 -111.212 -9.33733 0.980002 -21.8784 12.8583 7.00868 -0.790676 -5.50809 7.10701 -4.50158 
-97.1455 97.2302 -69.8508 92.3948 -67.4453 89.5286 -170.455 1.05756 100.89 -17.6168 33.7594 1.88735 75.1661 9.78883 -1.37122 32.8684 -1.04583 7.30074 167.295 -1.9925 88.3383 -26.6743 6.07176 4.11267 79.4497 -12.5446 -0.617331 31.193 -1.99618 4.20148 0.597361 7.88979 -89.8809 11.0941 1.2444 0.116589 -0.576297 1.24833 0.061693 -23.1157 1.15181 0.485243 -3.10303 1.15182 0.485243 91.7862 -25.9316 -104.638 50.7978 -20.1675 12.217 -10.4513 -11.4413 -23.4379 -8.48717 0.30566 -9.94317 -88.0794 -47.9306 81.2186 -6.1827 3.40748 -33.1959 -149.175 -26.6655 -115.519 -3.24878 0.0471232 -21.871 11.1812 -0.174251 -0.83226 -3.73087 0.0473747 -8.64889 
-100.884 96.2606 -67.6746 86.0817 -72.3101 84.6461 -171.627 6.61094 102.014 -29.0534 21.8438 2.98034 76.7373 10.9186 -0.963292 32.8205 -1.46495 8.33545 171.322 -0.225362 92.616 -27.6597 6.42348 2.95331 82.161 -13.2713 0.623519 30.0554 -1.47161 3.91559 0.4076 7.87536 -89.963 11.1234 0.828541 -0.00681751 -0.547261 0.827451 -0.043284 -23.0844 0.792292 0.242529 -3.07176 0.792278 0.242516 91.1429 -26.3194 -105.851 49.2617 -21.3183 9.50413 -10.683 -11.1791 -24.42 -8.73905 0.195229 -8.22735 -87.6493 -48.0886 81.9085 -5.00418 8.48865 -19.0935 -151.366 -25.7773 -117.356 -2.24483 -0.111307 -22.8631 12.5201 -3.9744 -0.761993 -2.85194 -3.73041 -9.90772 
-103.922 96.3818 -65.1719 76.4858 -77.1731 74.9846 -173.786 15.8573 98.4659 -47.4501 4.69823 3.4531 77.3517 10.617 3.35412 18.6843 -4.70325 0.834182 174.216 -2.11069 95.0824 -22.1827 4.67239 1.16574 81.0145 -14.1393 -1.14682 28.9234 -1.6123 6.47534 0.466444 8.03223 -89.9954 10.81 0.93093 -0.0773662 -0.860582 0.926611 -0.118267 -23.3984 0.911133 0.206022 -3.38574 0.911132 0.206019 90.2997 -26.5146 -107.541 47.8794 -22.0139 6.30524 -11.2877 -13.8087 -24.1462 -11.4126 0.168224 -7.18474 -87.306 -50.0835 82.7815 -6.48187 17.1408 -6.9957 -155.026 -24.0409 -120.709 -3.93973 0.168365 -22.963 16.4637 -6.215 0.40765 -3.0465 -6.16639 -10.4615 
-106.04 96.5132 -61.9552 59.0716 -78.9523 56.3932 -175.082 26.0545 91.8069 -60.9395 1.2273 2.55039 79.6598 12.3092 7.80294 13.0531 -4.82633 -3.40272 174.971 -5.28488 94.808 -14.1047 1.18559 0.526245 79.1105 -14.1071 -1.31487 27.8891 -1.32063 6.89594 0.740059 8.06918 -89.9497 10.7366 1.49694 -0.0381711 -0.933537 1.49381 -0.104035 -23.4751 1.43919 0.413581 -3.46243 1.43919 0.413577 90.1752 -26.9407 -107.623 47.8557 -19.6825 4.41352 -12.2406 -13.5103 -25.1274 -13.2359 0.183121 -6.95227 -87.3075 -50.5577 82.8585 -14.2322 25.0407 1.7501 -160.008 -23.8154 -127.285 -6.62163 0.598876 -23.0104 18.7975 -8.90596 -0.202002 -2.74682 -8.59534 -8.87568 
-107.844 95.5486 -58.1151 30.1886 -79.8668 26.1243 -173.03 35.5942 84.6743 -67.3232 5.42144 0.110313 82.5302 13.2359 4.04295 18.2503 -3.44087 -1.91041 175.223 -6.39527 93.8577 -11.1018 -1.82323 -0.39198 80.6851 -14.2863 0.907619 26.8137 -0.790264 6.42029 1.26985 8.07175 -89.846 10.732 2.59978 0.0669635 -0.936313 2.6002 -0.0476105 -23.4906 2.45938 0.845687 -3.47797 2.45939 0.845678 90.1017 -26.6977 -107.878 47.6547 -14.843 3.58253 -13.8602 -7.38787 -32.108 -12.0485 0.352283 -8.86346 -87.3331 -51.156 82.9197 -23.0268 25.1711 12.6027 -162.255 -22.059 -128.524 -11.0783 1.38224 -23.4518 21.7247 -10.6486 -0.263548 -3.90564 -10.1288 -8.66006 
-109.513 93.2093 -54.1125 1.75537 -79.0947 -2.93288 -168.801 44.9189 77.1448 -68.7078 8.83262 -2.5684 84.5063 14.7009 3.49808 21.2276 -2.27751 -1.79397 175.254 -4.37024 93.3363 -17.3526 -4.29297 -0.859489 85.8957 -17.4744 1.20646 28.6658 -1.63606 6.98734 1.66735 8.32754 -89.8482 10.222 3.39153 0.0123014 -1.44455 3.38878 -0.137157 -24.0129 3.23087 1.03212 -4.00021 3.23087 1.03211 89.0777 -27.5819 -109.607 41.3937 -12.268 -0.89808 -20.6293 -7.82828 -44.6978 -7.06801 0.290073 -10.7229 -86.2222 -50.8585 84.5259 -30.7489 16.3866 23.5248 -162.46 -18.9991 -123.979 -13.6613 1.86556 -23.9696 26.4468 -11.0804 0.215856 -3.96533 -10.642 -7.91464 
-110.828 89.9838 -50.0048 -26.7699 -77.2961 -31.5714 -164.458 53.2901 70.7032 -66.8312 5.80121 -4.35091 86.1548 14.7336 1.43639 21.9313 -2.49754 -0.747754 175.02 -0.981368 92.0111 -31.1711 -8.53246 -1.55589 90.7175 -20.9104 0.268468 33.8883 -3.60553 7.12873 2.03108 8.78303 -89.9785 9.31587 4.06002 -0.254311 -2.34879 4.04489 -0.433055 -24.9331 3.94844 0.979619 -4.92043 3.94845 0.979615 89.4283 -26.1162 -109.529 29.3128 -6.94306 -11.0548 -26.726 -6.29762 -57.9961 -8.7528 0.230802 -8.67453 -85.9678 -49.505 84.7073 -37.6587 8.65321 33.7806 -161.211 -16.4031 -117.184 -14.6185 2.03494 -24.0097 29.4674 -9.40083 3.07513 -4.3349 -10.0814 -9.06892 
-112.278 86.4734 -43.8562 -40.4645 -73.4463 -46.3509 -162.175 61.5916 65.5681 -63.2198 4.20956 -4.63849 85.2797 14.4385 2.56729 21.7629 -1.94218 -2.03795 173.279 -1.66922 89.9225 -37.2044 -15.6177 -2.38721 92.9751 -23.1814 -1.60705 38.2553 -5.25339 7.3991 2.25846 9.13141 -89.8348 8.61146 4.57951 0.0360661 -3.05145 4.57666 -0.165953 -25.6467 4.35654 1.41338 -5.63409 4.35654 1.41339 91.1916 -21.1762 -107.969 18.9205 2.48677 -24.6529 -32.5477 -4.10358 -71.4432 -7.45653 0.0803711 -7.01397 -85.1037 -46.9341 85.6724 -45.0287 15.5607 43.6249 -157.344 -10.2346 -107.645 -15.1569 2.01458 -23.0024 31.7261 -7.87212 5.13246 -3.92862 -9.56144 -8.87819 
-115.795 84.8508 -33.8777 -39.9763 -68.714 -47.7833 -163.071 66.0725 65.5131 -57.9288 8.02127 -4.82111 82.6343 13.1666 2.66692 21.2527 -3.54029 0.778498 171.894 -7.99588 86.3154 -28.4075 -21.9497 -3.22349 85.2155 -18.6696 -3.61632 45.0906 -7.80885 9.77694 2.55925 9.00179 -89.2379 8.84777 5.44477 1.14412 -2.81204 5.48982 0.902667 -25.4197 4.84875 2.73094 -5.40705 4.84875 2.73094 93.2039 -14.4211 -106.315 18.0359 16.4765 -30.9534 -35.1552 0.0450992 -85.7063 -9.19074 -0.159584 -3.23186 -85.287 -42.8764 84.7764 -47.4074 21.6343 51.4139 -155.067 -2.74723 -97.6472 -16.8095 2.39627 -23.7697 36.8182 -9.47172 1.72575 -6.19455 -9.54531 -7.46182 
